<svg width="24" height="24" fill="none" xmlns="http://www.w3.org/2000/svg">
    <path
        d="M15.858 8.785a.643.643 0 0 1 .643-.643h2.572a.643.643 0 0 1 .642.643v1.286a.643.643 0 0 1-.642.643H16.5a.643.643 0 0 1-.643-.643V8.785z"
        fill="#8F9AA6"></path>
    <path fill-rule="evenodd" clip-rule="evenodd"
        d="M15.733 8.785a.768.768 0 0 1 .768-.768h2.572a.768.768 0 0 1 .767.768v1.286a.768.768 0 0 1-.767.768H16.5a.768.768 0 0 1-.768-.768V8.785zm.314-.455a.643.643 0 0 0-.189.455v1.286a.642.642 0 0 0 .643.643h2.572a.643.643 0 0 0 .642-.643V8.785a.643.643 0 0 0-.642-.643H16.5a.643.643 0 0 0-.454.188z"
        fill="#8F9AA6"></path>
    <path
        d="M4.287 4.285a2.571 2.571 0 0 0-2.572 2.571v10.286a2.571 2.571 0 0 0 2.572 2.572h15.428a2.571 2.571 0 0 0 2.572-2.572V6.856a2.572 2.572 0 0 0-2.572-2.571H4.287zM21 6.856v6.429h-18V6.856a1.286 1.286 0 0 1 1.286-1.285h15.428a1.286 1.286 0 0 1 1.286 1.285zm-1.286 11.572H4.287A1.286 1.286 0 0 1 3 17.142v-1.286h18v1.286a1.286 1.286 0 0 1-1.286 1.286z"
        fill="#8F9AA6"></path>
    <path fill-rule="evenodd" clip-rule="evenodd"
        d="M2.38 4.95a2.696 2.696 0 0 1 1.907-.79h15.428a2.696 2.696 0 0 1 2.697 2.696v10.286a2.696 2.696 0 0 1-2.697 2.697H4.287a2.696 2.696 0 0 1-2.697-2.697V6.856c0-.715.284-1.4.79-1.906zm18.496 8.21V6.856a1.16 1.16 0 0 0-1.16-1.16H4.285a1.16 1.16 0 0 0-1.16 1.16v6.304h17.75zm-16.59 5.143h15.43a1.16 1.16 0 0 0 1.16-1.16V15.98H3.126v1.161a1.16 1.16 0 0 0 1.16 1.16zM2.469 5.038a2.571 2.571 0 0 1 1.819-.753h15.428a2.571 2.571 0 0 1 2.572 2.571v10.286a2.572 2.572 0 0 1-2.572 2.572H4.287a2.571 2.571 0 0 1-2.572-2.572V6.856c0-.682.271-1.336.753-1.818zm18.533 1.818a1.286 1.286 0 0 0-1.286-1.285H4.287A1.286 1.286 0 0 0 3 6.856v6.429h18V6.856zM4.287 18.428h15.428a1.286 1.286 0 0 0 1.286-1.286v-1.286h-18v1.286a1.286 1.286 0 0 0 1.286 1.286z"
        fill="#8F9AA6"></path>
</svg>