<svg width="36" height="36" fill="none" xmlns="http://www.w3.org/2000/svg">
    <mask id="a" maskUnits="userSpaceOnUse" x="0" y="0" width="36" height="36" style="mask-type: alpha;">
        <path fill="#C4C4C4" d="M0 0h36v36H0z"></path>
    </mask>
    <g mask="url(#a)">
        <path
            d="M1.005 33.312V2.61c.072-.463.181-.89.557-1.239.313-.29.701-.239 1.046-.364H33.31c.353.085.718.105 1.027.353.45.362.585.84.614 1.378.003.064 0 .127 0 .19v30.045c0 .581-.083 1.122-.565 1.556-.356.321-.765.37-1.192.424-.075.009-.152.002-.229.002H2.961c-.615 0-1.179-.094-1.61-.614-.259-.312-.247-.68-.346-1.028z"
            fill="#BC006E"></path>
        <path
            d="M1.005 33.312c.077.046.064.132.087.202.284.853 1.024 1.4 1.928 1.4 9.948.003 19.897.003 29.845 0 1.19 0 2.047-.86 2.047-2.045.002-9.924.001-19.847.002-29.77 0-1.11-.61-1.748-1.604-2.093.496 0 .993.009 1.49-.006.164-.004.224.032.191.196-.01.05-.001.102-.001.153 0 11.1-.002 22.2.007 33.3 0 .286-.065.35-.35.35-11.215-.008-22.428-.007-33.642-.007v-1.68z"
            fill="#FEFEFE"></path>
        <path
            d="M2.608 1.006c-.818.25-1.35.788-1.603 1.604 0-.484.006-.968-.005-1.45-.003-.134.025-.16.157-.158.484.01.967.004 1.451.004z"
            fill="#FDFCFD"></path>
        <path
            d="M18.601 11.682c0 1.158-.008 2.316.006 3.474.003.275-.059.376-.356.369a57.78 57.78 0 0 0-2.633 0c-.293.007-.359-.086-.357-.366.011-2.2.008-4.402.005-6.603-.001-.532-.238-.84-.68-.91-.554-.087-.958.283-.96.894-.002 2.164 0 4.326 0 6.49 0 .488-.002.488-.49.488-.789 0-1.577.003-2.366 0-.547-.003-.496.073-.496-.48-.003-2.176 0-4.351-.003-6.527 0-.578-.368-.925-.903-.869-.458.048-.715.37-.716.913-.002 1.96 0 3.918 0 5.878 0 .28-.008.56.002.84.006.176-.053.248-.238.247-.954-.007-1.908-.009-2.863 0-.212.003-.25-.088-.25-.274.004-2.329-.026-4.657.013-6.984.03-1.8 1.456-3.327 3.313-3.664 1.08-.196 2.104-.045 3.047.525.221.134.365.109.575-.014 2.126-1.244 4.911-.46 5.974 1.669.28.56.378 1.155.377 1.773v3.131zm0 12.7c0 1.158-.008 2.316.006 3.474.004.279-.064.375-.357.368-.878-.02-1.756-.02-2.634 0-.295.007-.357-.09-.355-.368.01-2.214.005-4.428.007-6.642 0-.348-.114-.623-.436-.785-.313-.158-.616-.123-.9.077-.271.191-.308.474-.308.779.003 2.15.003 4.3 0 6.451 0 .544.059.477-.496.48-.828.004-1.655-.012-2.482.008-.304.007-.382-.087-.38-.385.012-2.213.01-4.428.005-6.642-.002-.665-.6-1.057-1.174-.78-.356.173-.45.482-.448.855.005 2.15.003 4.302.001 6.452 0 .56.063.489-.483.492-.852.004-1.705-.005-2.558.005-.224.003-.311-.053-.31-.296.009-2.316-.029-4.633.017-6.948.044-2.248 2.19-3.972 4.556-3.736.655.065 1.277.24 1.832.598.192.124.316.108.506-.005 2.125-1.262 4.89-.513 5.994 1.611.296.568.397 1.176.397 1.807v3.13zm1.043-14.351c-.008-3.033 2.444-5.507 5.463-5.511a5.499 5.499 0 0 1 5.506 5.51c-.003 3.012-2.45 5.477-5.446 5.487a5.48 5.48 0 0 1-5.523-5.486zm5.49 18.185a5.48 5.48 0 0 1-5.49-5.477c-.008-3.036 2.432-5.503 5.455-5.518 3.035-.015 5.516 2.462 5.513 5.503a5.485 5.485 0 0 1-5.478 5.492z"
            fill="#FEFEFE"></path>
        <path
            d="M5.287 30.773c0-.013-.005-.028 0-.037.148-.256-.315-.771.267-.798.309-.013.677-.23.973.069.11.111.171.01.256-.033.502-.254.9-.026.919.527.01.28.002.56.002.84-.001.138.024.284-.197.288-.245.006-.215-.157-.216-.308-.002-.255 0-.509-.002-.763 0-.185-.057-.34-.268-.345-.221-.004-.315.145-.32.348-.008.28-.007.56-.003.84.002.156-.053.233-.222.227-.165-.005-.18-.104-.18-.23 0-.267 0-.533-.002-.8-.002-.212-.065-.395-.316-.385-.23.008-.277.182-.275.38.003.267-.002.534.002.801.002.152-.042.235-.216.235-.184 0-.205-.103-.203-.246.003-.203 0-.406 0-.61z"
            fill="#FCF8FA"></path>
        <path
            d="M19.263 30.758v-.382c0-.28-.085-.555.428-.43.265.066.602-.134.89.101.029.023.147-.068.226-.102.467-.201.827.009.85.507.015.305.005.611.004.916 0 .13.008.256-.188.259-.216.003-.209-.133-.209-.28.001-.267 0-.534-.001-.801-.002-.189-.074-.337-.28-.337-.213.001-.32.14-.324.347-.006.28-.003.56-.003.84 0 .124-.013.226-.18.23-.17.004-.225-.071-.222-.229.006-.28 0-.56.001-.84 0-.21-.084-.357-.308-.347-.196.01-.286.142-.284.338.001.254.002.51-.002.763-.002.147.04.321-.21.314-.222-.006-.186-.162-.188-.297-.003-.188 0-.38 0-.57z"
            fill="#FDFAFC"></path>
        <path
            d="M12.37 30.75c.005.687-.3.938-.995.819-.012-.003-.026-.016-.035-.013-.627.244-.462-.232-.47-.528a38.36 38.36 0 0 1 0-1.482c.003-.145-.083-.359.203-.35.29.008.152.23.186.366.01.036.004.075 0 .113-.014.201-.025.322.273.233.49-.145.833.228.837.841z"
            fill="#FDFAFB"></path>
        <path
            d="M27.044 30.755c.006-.51.278-.842.715-.872.435-.03.727.237.786.7.028.219-.017.342-.272.32-.19-.014-.381-.003-.572 0-.073 0-.169-.02-.2.067-.033.093.028.169.098.229.181.154.376.153.56.021.12-.086.215-.082.291.032.101.149-.051.206-.131.26-.278.184-.58.181-.871.042-.285-.136-.408-.403-.404-.8z"
            fill="#FCFAFB"></path>
        <path
            d="M15.706 30.779c.001-.555.327-.914.811-.898a.742.742 0 0 1 .699.868c-.024.146-.11.149-.215.15-.203 0-.406-.002-.61.002-.083.002-.202-.032-.229.077-.026.106.06.186.144.25.18.134.362.104.53-.011.123-.084.218-.074.29.044.075.125-.042.18-.12.235-.275.193-.573.2-.868.065-.328-.15-.437-.438-.432-.782z"
            fill="#FCF9FB"></path>
        <path
            d="M29.927 30.885c.068-.237.148-.471.201-.713.047-.217.169-.319.376-.255.245.075.056.236.024.336-.168.531-.355 1.057-.536 1.584-.085.244-.233.424-.505.456-.1.012-.214 0-.237-.132-.019-.104-.01-.189.134-.221.32-.073.332-.301.24-.56-.138-.393-.288-.784-.419-1.18-.027-.085-.171-.223.023-.277.141-.04.307-.057.369.154.08.274.171.544.258.816l.072-.008z"
            fill="#FCF9FA"></path>
        <path
            d="M8.489 30.783c-.004-.541.292-.892.762-.902.506-.01.827.33.828.88.002.53-.309.876-.788.881-.488.006-.799-.327-.802-.859zm13.975-.02c0-.54.299-.88.778-.882.485-.003.797.331.804.862.006.554-.304.902-.804.9-.487-.005-.777-.332-.778-.88z"
            fill="#FDFAFB"></path>
        <path
            d="M24.825 30.77c0-.101-.008-.204.002-.304.026-.278-.158-.769.46-.47.008.003.024-.009.036-.01.851-.115.906-.068.906.776 0 .216-.002.431 0 .647 0 .126-.018.221-.184.218-.152-.003-.198-.075-.198-.212.002-.279-.002-.558-.003-.836-.001-.196-.053-.373-.286-.366-.222.008-.335.149-.332.38.004.266-.003.532 0 .798.003.147-.03.239-.209.238-.189 0-.195-.114-.193-.25.003-.203.002-.406.001-.609z"
            fill="#FDF9FB"></path>
        <path
            d="M14.892 30.427c0 .317-.005.634.002.95.004.17-.04.26-.233.254-.184-.005-.199-.11-.199-.25.002-.646.004-1.293-.001-1.939-.002-.169.04-.26.233-.254.185.004.2.11.199.25-.003.33-.001.659-.001.989z"
            fill="#FAF0F5"></path>
        <path
            d="M13.585 30.792c0 .216-.003.432 0 .648.003.153-.08.19-.216.191-.143 0-.21-.054-.208-.201.003-.445.003-.89-.001-1.334-.002-.157.084-.192.216-.192.139 0 .213.05.21.2-.005.23 0 .459-.001.688z"
            fill="#F9ECF3"></path>
        <path
            d="M13.602 29.463c-.016.158-.087.23-.222.23-.133 0-.217-.069-.22-.202-.003-.15.085-.231.235-.227.14.004.183.106.207.199z"
            fill="#F3D1E4"></path>
        <path
            d="M25.114 12.401a2.378 2.378 0 0 1-2.376-2.374 2.378 2.378 0 0 1 2.399-2.39c1.332.001 2.383 1.069 2.373 2.413a2.365 2.365 0 0 1-2.396 2.351zm2.396 10.334a2.402 2.402 0 0 1-2.377 2.384c-1.316.006-2.403-1.088-2.395-2.409a2.403 2.403 0 0 1 2.38-2.382 2.394 2.394 0 0 1 2.392 2.407z"
            fill="#BC006E"></path>
        <path
            d="M11.26 30.706c-.018-.21-.005-.456.298-.492.244-.028.369.144.386.374.022.276.082.586-.275.706-.261.088-.411-.125-.41-.588z"
            fill="#BE0673"></path>
        <path
            d="M27.799 30.597c-.102-.04-.29.075-.295-.12-.004-.16.133-.273.301-.274.17 0 .308.105.297.274-.012.183-.194.087-.303.12z"
            fill="#C3137D"></path>
        <path
            d="M16.467 30.596c-.103-.044-.294.077-.295-.123 0-.162.133-.274.305-.27.146.004.285.083.29.24.01.239-.197.104-.3.153z"
            fill="#C20D7A"></path>
        <path
            d="M9.688 30.794c-.039.266-.107.537-.442.509-.332-.029-.365-.321-.36-.578.007-.25.087-.494.392-.523.228-.022.425.281.41.592z"
            fill="#BE0673"></path>
        <path
            d="M22.843 30.765c.03-.261.077-.518.395-.562.23-.03.44.255.418.57-.018.26-.084.536-.411.53-.322-.005-.376-.275-.402-.538z"
            fill="#BE0572"></path>
    </g>
</svg>